<svg width="47" height="76" viewBox="0 0 47 76" fill="none" xmlns="http://www.w3.org/2000/svg">
<path d="M2.07282 37.5233C9.09844 36.2034 21.116 29.6038 21.4857 1.88559C21.4857 1.3855 21.6805 0.905901 22.0272 0.552284C22.374 0.198666 22.8442 0 23.3346 0C23.8249 0 24.2952 0.198666 24.6419 0.552284C24.9886 0.905901 25.1834 1.3855 25.1834 1.88559C24.8137 33.375 39.0498 35.6377 45.151 36.7691C45.6577 36.8163 46.1287 37.0554 46.471 37.4394C46.8132 37.8234 47.0019 38.3243 46.9998 38.8432C47.0067 39.433 46.8049 40.0055 46.4313 40.4558C46.0577 40.906 45.5375 41.2038 44.9661 41.2945C38.3102 42.2373 24.259 45.0657 23.8892 73.9153C23.9183 74.195 23.8858 74.4777 23.7938 74.7429C23.7019 75.008 23.553 75.2488 23.358 75.4477C23.1631 75.6466 22.9269 75.7984 22.6669 75.8922C22.407 75.9859 22.1297 76.0191 21.8555 75.9895C21.5721 75.9907 21.2916 75.9314 21.032 75.8156C20.7724 75.6998 20.5394 75.5299 20.3479 75.3169C20.1564 75.1038 20.0107 74.8523 19.9201 74.5785C19.8295 74.3047 19.796 74.0145 19.8218 73.7267C20.1915 44.8771 8.17402 43.3687 1.70306 41.8602C1.43395 41.815 1.17652 41.715 0.946064 41.5662C0.715614 41.4175 0.516857 41.223 0.361614 40.9943C0.206371 40.7656 0.0978203 40.5074 0.0424118 40.235C-0.0129967 39.9627 -0.0141258 39.6817 0.0390892 39.4089C0.148407 38.9203 0.40197 38.4775 0.765606 38.1404C1.12924 37.8032 1.58547 37.5879 2.07282 37.5233Z" fill="#55F186"/>
</svg>
