<svg width="29" height="44" viewBox="0 0 29 44" fill="none" xmlns="http://www.w3.org/2000/svg">
<path d="M26.7509 21.7014C22.5586 21.1041 15.3718 17.1222 15.1722 0.995589C15.1722 0.731573 15.067 0.47837 14.8798 0.291683C14.6926 0.104996 14.4387 0.00011667 14.174 0.00011667C13.8881 -0.0038675 13.6101 0.0943061 13.3905 0.276881C13.1708 0.459455 13.0239 0.714383 12.9762 0.995589C13.3755 19.3123 4.79127 20.5068 1.19788 21.3032C0.911941 21.2992 0.63401 21.3974 0.414328 21.58C0.194646 21.7626 0.0477059 22.0175 7.34666e-05 22.2987C-0.00339598 22.6363 0.116122 22.9636 0.336422 23.22C0.556723 23.4763 0.862833 23.6441 1.19788 23.6924C5.19053 24.2896 13.5751 25.8824 13.7747 42.8054C13.7747 43.1222 13.9009 43.4261 14.1256 43.6501C14.3502 43.8741 14.6549 44 14.9725 44C15.7711 44 16.1703 43.4027 16.1703 42.6063C15.9707 25.8824 23.1575 24.8869 26.9505 24.0906C30.7435 23.2942 28.1483 23.2942 27.9487 22.6969C27.8368 22.4519 27.6711 22.2352 27.4637 22.0628C27.2563 21.8905 27.0127 21.767 26.7509 21.7014Z" fill="#FF78B9"/>
</svg>
