<svg width="37" height="59" viewBox="0 0 37 59" fill="none" xmlns="http://www.w3.org/2000/svg">
<path d="M35.3953 29.198C29.8275 28.3925 20.2827 22.9556 20.0839 1.40955C20.0839 1.03571 19.9372 0.677192 19.6762 0.412848C19.4151 0.148505 19.0611 0 18.6919 0C18.3228 0 17.9687 0.148505 17.7077 0.412848C17.4466 0.677192 17.3 1.03571 17.3 1.40955C17.4988 25.9761 6.3632 27.7884 1.5908 28.5939C1.19602 28.6683 0.832757 28.8621 0.548806 29.1496C0.264855 29.4371 0.073525 29.805 0 30.2048C0.062481 30.6308 0.246229 31.029 0.528765 31.3509C0.811301 31.6728 1.18037 31.9043 1.5908 32.0171C6.95975 32.6212 17.8965 34.8362 18.2942 57.3891C18.2942 57.8163 18.4618 58.2261 18.7601 58.5282C19.0585 58.8303 19.4631 59 19.885 59C20.3069 59 20.7115 58.8303 21.0099 58.5282C21.3082 58.2261 21.4758 57.8163 21.4758 57.3891C21.0781 34.8362 30.6229 33.628 35.5942 32.4198C35.8037 32.395 36.0063 32.3281 36.1902 32.2232C36.374 32.1183 36.5354 31.9775 36.6649 31.8088C36.7944 31.6402 36.8896 31.4471 36.9447 31.2408C36.9999 31.0346 37.0139 30.8193 36.9861 30.6075C36.8602 30.2556 36.6482 29.9417 36.37 29.6952C36.0918 29.4487 35.7565 29.2776 35.3953 29.198Z" fill="#8CD9FF"/>
</svg>
